<?xml version="1.0" ?><svg xmlns="http://www.w3.org/2000/svg" xmlns:xlink="http://www.w3.org/1999/xlink" version="1.1" viewBox="0 0 32 32" style="enable-background:new 0 0 32 32;" xml:space="preserve"><style type="text/css">
	.st0{display:none;}
	.st1{display:inline;}
	.st2{fill:#CDF6F9;}
	.st3{fill:#FFFFFF;}
	.st4{fill:#1A83A8;}
</style><g id="Layer_1" class="st0"/><g id="Layer_2"/><g id="Layer_3"/><g id="Layer_4"/><g id="Layer_5"/><g id="Layer_6"/><g id="Layer_7"/><g id="Layer_8"/><g id="Layer_9"/><g id="Layer_10"/><g id="Layer_11"/><g id="Layer_12"/><g id="Layer_13"><path class="st2" d="M25,8.51V25.7c0,1.82-1.48,3.3-3.3,3.3H6.56c-1.83,0-3.3-1.48-3.3-3.3V8.51c0-1.82,1.47-3.3,3.3-3.3h3.01   L9.34,5.78C9.03,6.56,9.6,7.41,10.45,7.41h7.36c0.85,0,1.42-0.85,1.11-1.63l-0.23-0.57h3.01C23.52,5.21,25,6.69,25,8.51z"/><path class="st3" d="M10.447,7.414l7.365,0c0.844,0,1.422-0.852,1.109-1.636l-0.809-2.026c-0.181-0.454-0.62-0.751-1.109-0.751   l-5.748,0c-0.488,0-0.928,0.298-1.109,0.751L9.338,5.778C9.025,6.562,9.603,7.414,10.447,7.414z"/><path class="st3" d="M17.81,7.41h-7.36c-0.85,0-1.42-0.85-1.11-1.63l0.23-0.57l0.58-1.46C10.33,3.3,10.77,3,11.26,3H17   c0.49,0,0.93,0.3,1.11,0.75l0.58,1.46l0.23,0.57C19.23,6.56,18.66,7.41,17.81,7.41z"/><path class="st3" d="M28.149,18.773L28.149,18.773c0.786,0.786,0.786,2.06,0,2.846l-6.796,6.796   c-0.105,0.105-0.241,0.175-0.388,0.2l-2.204,0.372c-0.487,0.082-0.909-0.34-0.827-0.827l0.372-2.204   c0.025-0.147,0.095-0.283,0.2-0.388l6.796-6.796C26.089,17.987,27.363,17.987,28.149,18.773z"/><path class="st4" d="M13.981,28.099h-7.42c-1.324,0-2.4-1.076-2.4-2.399V8.509c0-1.323,1.077-2.4,2.4-2.4H8.37   c-0.024,0.45,0.084,0.902,0.344,1.286c0.39,0.576,1.038,0.919,1.733,0.919h7.366c0.695,0,1.343-0.344,1.733-0.919   c0.26-0.384,0.368-0.836,0.344-1.286h1.812c1.324,0,2.4,1.077,2.4,2.4v5.92c0,0.497,0.403,0.9,0.9,0.9s0.9-0.403,0.9-0.9v-5.92   c0-2.316-1.884-4.2-4.2-4.2h-2.397l-0.356-0.892c-0.32-0.8-1.083-1.317-1.944-1.317h-5.749c-0.862,0-1.625,0.518-1.944,1.318   L8.955,4.31H6.562c-2.316,0-4.2,1.884-4.2,4.2v17.19c0,2.315,1.884,4.2,4.2,4.2h7.42c0.497,0,0.9-0.403,0.9-0.9   S14.479,28.099,13.981,28.099z M10.174,6.111l0.809-2.026C11.028,3.973,11.135,3.9,11.255,3.9h5.749   c0.121,0,0.228,0.073,0.272,0.185l0.809,2.026c0.05,0.126,0.003,0.226-0.03,0.274c-0.032,0.048-0.107,0.129-0.243,0.129h-7.366   c-0.136,0-0.21-0.081-0.243-0.129C10.171,6.337,10.124,6.237,10.174,6.111z"/><path class="st4" d="M20.649,15.48c0-0.497-0.403-0.9-0.9-0.9h-6.721c-0.497,0-0.9,0.403-0.9,0.9s0.403,0.9,0.9,0.9h6.721   C20.247,16.38,20.649,15.978,20.649,15.48z"/><path class="st4" d="M9.421,14.581H8.51c-0.497,0-0.9,0.403-0.9,0.9s0.403,0.9,0.9,0.9h0.912c0.497,0,0.9-0.403,0.9-0.9   S9.918,14.581,9.421,14.581z"/><path class="st4" d="M13.031,20.039c-0.497,0-0.9,0.403-0.9,0.9s0.403,0.9,0.9,0.9h4.45c0.497,0,0.9-0.403,0.9-0.9   s-0.403-0.9-0.9-0.9H13.031z"/><path class="st4" d="M9.421,20.04H8.51c-0.497,0-0.9,0.403-0.9,0.9s0.403,0.9,0.9,0.9h0.912c0.497,0,0.9-0.403,0.9-0.9   S9.918,20.04,9.421,20.04z"/><path class="st4" d="M28.785,18.137c-1.1-1.1-3.019-1.1-4.119,0l-6.796,6.796c-0.239,0.239-0.395,0.542-0.451,0.875l-0.373,2.203   c-0.087,0.517,0.083,1.045,0.453,1.415c0.306,0.304,0.719,0.472,1.143,0.472c0.09,0,0.18-0.008,0.27-0.022l2.201-0.372   c0.335-0.056,0.638-0.212,0.876-0.451l6.796-6.796C29.921,21.12,29.921,19.272,28.785,18.137z M20.758,27.737l-1.893,0.32   l0.319-1.893l4.736-4.736l1.573,1.573L20.758,27.737z M27.513,20.982l-0.746,0.746l-1.573-1.573l0.746-0.746   c0.421-0.422,1.153-0.421,1.573-0.001c0,0.001,0,0.001,0,0.001C27.946,19.844,27.946,20.549,27.513,20.982z"/></g><g id="Layer_14"/><g id="Layer_15"/><g id="Layer_16"/><g id="Layer_17"/><g id="Layer_18"/><g id="Layer_19"/><g id="Layer_20"/><g id="Layer_21"/><g id="Layer_22"/><g id="Layer_23"/><g id="Layer_24"/><g id="Layer_25"/><g id="Layer_26"/></svg>